<?xml version="1.0" encoding="utf-8"?>
<!-- Generator: Adobe Illustrator 26.0.0, SVG Export Plug-In . SVG Version: 6.00 Build 0)  -->
<svg version="1.1" xmlns="http://www.w3.org/2000/svg" xmlns:xlink="http://www.w3.org/1999/xlink" x="0px" y="0px"
	 viewBox="0 0 585 279" style="enable-background:new 0 0 585 279;" xml:space="preserve">
<style type="text/css">
	.st0{display:none;}
	.st1{display:inline;fill:#1A1A1A;}
	.st2{display:none;fill:url(#Hexagonbg_00000070102974163678815940000004327087824077043103_);}
	.st3{display:inline;fill:#FFFFFF;}
	.st4{opacity:0.35;}
	.st5{fill:url(#SVGID_1_);}
	.st6{display:none;opacity:0.35;fill:url(#SVGID_00000073720293253265949190000016759511497256015490_);}
</style>
<g id="Layer_2" class="st0">
	<rect x="-279.41" y="-400.5" class="st1" width="1143.83" height="1080"/>
</g>
<g id="Atlas-Components">
	
		<linearGradient id="Hexagonbg_00000147923008204437604790000015874464314657167265_" gradientUnits="userSpaceOnUse" x1="-5214.4404" y1="3537.98" x2="-6080.0513" y2="2873.8369" gradientTransform="matrix(-1 0 0 -1 -5779.5957 3024.1914)">
		<stop  offset="0.4821" style="stop-color:#05B7C5"/>
		<stop  offset="0.6082" style="stop-color:#05ACB8"/>
		<stop  offset="0.843" style="stop-color:#068F94"/>
		<stop  offset="1" style="stop-color:#067879"/>
	</linearGradient>
	<path id="Hexagonbg" style="display:none;fill:url(#Hexagonbg_00000147923008204437604790000015874464314657167265_);" d="
		M675.71,334.46V-63.46c0-17.86-9.53-34.37-25-43.3L306.09-305.73c-15.47-8.93-34.53-8.93-50,0L-88.52-106.77
		c-15.47,8.93-25,25.44-25,43.3v397.93c0,17.86,9.53,34.37,25,43.3l344.62,198.96c15.47,8.93,34.53,8.93,50,0l344.62-198.96
		C666.18,368.83,675.71,352.33,675.71,334.46z"/>
	<g id="Hexagonbg_00000178184039654599356180000008968403127752609467_" class="st0">
		<path class="st3" d="M675.71,334.46V-63.46c0-17.86-9.53-34.37-25-43.3L306.09-305.73c-15.47-8.93-34.53-8.93-50,0L-88.52-106.77
			c-15.47,8.93-25,25.44-25,43.3v397.93c0,17.86,9.53,34.37,25,43.3l344.62,198.96c15.47,8.93,34.53,8.93,50,0l344.62-198.96
			C666.18,368.83,675.71,352.33,675.71,334.46z"/>
	</g>
	<g id="Hexagonbg_00000003789291807182191510000002226719810386960566_" class="st4">
		<linearGradient id="SVGID_1_" gradientUnits="userSpaceOnUse" x1="386.6872" y1="169.3122" x2="515.16" y2="40.8394">
			<stop  offset="0.1603" style="stop-color:#CCCCCC"/>
			<stop  offset="0.3647" style="stop-color:#BFBFBF"/>
			<stop  offset="0.7454" style="stop-color:#9B9B9B"/>
			<stop  offset="1" style="stop-color:#808080"/>
		</linearGradient>
		<path class="st5" d="M450.92,19.4c0.43,0,0.86,0.11,1.23,0.33l72.07,41.61c0.76,0.44,1.23,1.25,1.23,2.13v83.22
			c0,0.87-0.47,1.69-1.23,2.13l-72.07,41.61c-0.37,0.22-0.8,0.33-1.23,0.33s-0.86-0.11-1.23-0.33l-72.07-41.61
			c-0.76-0.44-1.23-1.25-1.23-2.13V63.46c0-0.88,0.47-1.69,1.23-2.13l72.07-41.61C450.07,19.51,450.49,19.4,450.92,19.4
			 M450.92,11.4c-1.81,0-3.61,0.47-5.23,1.4l-72.07,41.61c-3.24,1.87-5.23,5.32-5.23,9.06v83.22c0,3.74,1.99,7.19,5.23,9.06
			l72.07,41.61c1.62,0.93,3.42,1.4,5.23,1.4s3.61-0.47,5.23-1.4l72.07-41.61c3.24-1.87,5.23-5.32,5.23-9.06V63.46
			c0-3.74-1.99-7.19-5.23-9.06L456.15,12.8C454.53,11.86,452.73,11.4,450.92,11.4L450.92,11.4z"/>
	</g>
	
		<linearGradient id="SVGID_00000121278504537757139970000008408336502125436834_" gradientUnits="userSpaceOnUse" x1="409.6585" y1="176.5487" x2="492.2043" y2="33.5753">
		<stop  offset="0.1603" style="stop-color:#CCCCCC"/>
		<stop  offset="0.3647" style="stop-color:#BFBFBF"/>
		<stop  offset="0.7454" style="stop-color:#9B9B9B"/>
		<stop  offset="1" style="stop-color:#808080"/>
	</linearGradient>
	<path style="display:none;opacity:0.35;fill:url(#SVGID_00000121278504537757139970000008408336502125436834_);" d="M528.22,54.41
		l-19.6-11.32l0.02-0.03l-8.65-4.99l-2.85-1.65c-0.01,0.01-0.01,0.02-0.02,0.03l-8.87-5.12c0.01-0.01,0.01-0.02,0.02-0.03
		l-8.96-5.17l-2.86-1.65l-0.02,0.03L456.15,12.8c-1.62-0.93-3.42-1.4-5.23-1.4s-3.61,0.47-5.23,1.4l-72.07,41.61
		c-3.24,1.87-5.23,5.32-5.23,9.06v83.22c0,3.74,1.99,7.19,5.23,9.06l72.07,41.61c1.62,0.93,3.42,1.4,5.23,1.4s3.61-0.47,5.23-1.4
		l72.07-41.61c3.24-1.87,5.23-5.32,5.23-9.06V63.46C533.45,59.73,531.46,56.28,528.22,54.41z M492.88,43.66
		c-4.1,6.98-10.33,17.65-16.76,28.78c-3.17,5.49-6.32,8.15-9.66,9.82c-0.84,0.42-1.7,0.78-2.57,1.11
		c-0.75-4.55-0.61-9.19,3.35-16.06c6.43-11.14,12.67-21.81,16.76-28.78L492.88,43.66z M376.76,146.69V63.46
		c0-0.74,0.4-1.44,1.05-1.81l72.07-41.61c0.32-0.18,0.68-0.28,1.05-0.28s0.73,0.1,1.05,0.28l20.28,11.71l-10.38,17.97
		c-8.5,14.72-8.09,25.22-6.41,34.24c-8.49,2.92-17.64,7.41-25.69,21.37l-31.68,54.87L377.8,148.5
		C377.16,148.13,376.76,147.43,376.76,146.69z M456.27,106.84c-7.83,13.56-28.24,48.55-37.89,65.08l-8.54-4.93
		c10.37-18.05,30.04-52.26,37.56-65.28c3.69-6.4,7.52-8.6,11.77-10.14c0.16,0.88,0.28,1.75,0.36,2.65
		C459.81,97.84,459.23,101.7,456.27,106.84z M525.09,146.69c0,0.74-0.4,1.44-1.05,1.81l-72.07,41.61c-0.32,0.18-0.68,0.28-1.05,0.28
		s-0.73-0.1-1.05-0.28l-19.6-11.32l31.68-54.87c8.06-13.96,7.38-24.13,5.66-32.94c8.65-3.06,17.95-7.95,26.45-22.67l10.38-17.98
		l19.6,11.32c0.65,0.37,1.05,1.07,1.05,1.81V146.69z"/>
</g>
</svg>
