<svg id="Layer_1" data-name="Layer 1" xmlns="http://www.w3.org/2000/svg" viewBox="0 0 175.82 47.1"><defs><style>.cls-1{fill:#fff;}.cls-2{fill:#ccc;}</style></defs><path class="cls-1" d="M156.69,27.24a3.92,3.92,0,0,0-2.93-1.12q-2.12,0-5,2.47V22.33c0-.16-.08-.23-.26-.23h-.91c-.18,0-.27.07-.27.23V33.67H136.16a1.69,1.69,0,0,1-1.15-.28.55.55,0,0,1-.17-.45V22.35c0-.16-.09-.24-.26-.24h-.91q-.27,0-.27.24V32.69a1,1,0,0,1-.25.75,1.15,1.15,0,0,1-.78.23H112.31a1.49,1.49,0,0,1-1-.33.82.82,0,0,1-.28-.65v-6q0-.24-.27-.24h-.9c-.17,0-.26.08-.26.24v6a1,1,0,0,1-.25.75,1.24,1.24,0,0,1-.81.23h-1.23a1.79,1.79,0,0,1-1.17-.28.58.58,0,0,1-.16-.45V27.18c0-.16-.08-.24-.25-.24h-.93c-.17,0-.26.08-.26.24v5.51a.94.94,0,0,1-.26.75,1.15,1.15,0,0,1-.79.23h-2.56v-7a.23.23,0,0,0-.26-.25h-.91c-.18,0-.27.09-.27.25v7.54a2.32,2.32,0,0,1-.83,1.8,2.81,2.81,0,0,1-2,.75,2.84,2.84,0,0,1-2-.75,2.31,2.31,0,0,1-.82-1.8v-4.2c0-.16-.09-.24-.26-.24h-.92c-.17,0-.26.08-.26.24v4.2A3.55,3.55,0,0,0,93.65,37a4.28,4.28,0,0,0,3,1.14,4.35,4.35,0,0,0,2.72-.91A3.72,3.72,0,0,0,100.82,35h2.63a2.58,2.58,0,0,0,1.81-.62l.07-.07,0,0a3.14,3.14,0,0,0,2.16.66h1a2.62,2.62,0,0,0,1.83-.62,1,1,0,0,0,.15-.15s0,0,.05.06a3,3,0,0,0,2.06.71h19.78a2.54,2.54,0,0,0,1.8-.62l.07-.07,0,0a3.06,3.06,0,0,0,2.15.66h18a3.55,3.55,0,0,0,2.45-.81,2.86,2.86,0,0,0,.89-2.22V30.23A4.12,4.12,0,0,0,156.69,27.24ZM156.34,32a1.65,1.65,0,0,1-.46,1.3,2.08,2.08,0,0,1-1.44.42h-5.72V30.35a10.05,10.05,0,0,1,2.55-2.07,5.38,5.38,0,0,1,2.49-.86A2.33,2.33,0,0,1,156,28.58a3.35,3.35,0,0,1,.39,1.65Z"/><path class="cls-1" d="M163.78,24.17c.12,0,.18,0,.18.16v.39c0,.11-.06.16-.18.16h-3.33c-.12,0-.18-.05-.18-.16v-.39c0-.11.06-.16.18-.16H161v-1a1.29,1.29,0,0,1,.43-.95,1.51,1.51,0,0,1,1-.39,1.39,1.39,0,0,1,1.36.82l.08.17a.12.12,0,0,1,0,.13.18.18,0,0,1-.1.09l-.39.15-.07,0h-.06a.14.14,0,0,1-.1-.1l-.08-.17a.65.65,0,0,0-.64-.38.68.68,0,0,0-.48.18.55.55,0,0,0-.2.44v1Zm-1.21,2c.17,0,.26.08.26.24v8.33c0,.16-.09.24-.26.24h-.92c-.17,0-.26-.08-.26-.24V26.4c0-.16.09-.24.26-.24Z"/><path class="cls-2" d="M93.32,13.24c0,.09,0,.19-.07.3s-.06.24-.08.37a2.42,2.42,0,0,0,0,.38.73.73,0,0,0,.08.33.58.58,0,0,0,.25.24A1.06,1.06,0,0,0,94,15H98.2c0-.22,0-.42,0-.6a5,5,0,0,0,0-.55,3.33,3.33,0,0,0-.1-.55,4.19,4.19,0,0,0-.18-.58l.75-.55a6.9,6.9,0,0,1,.25.94,7.34,7.34,0,0,1,.1.93c0,.31,0,.62,0,.92s-.06.62-.11.92H93a.54.54,0,0,1-.2-.3,1.42,1.42,0,0,1-.06-.42,2.77,2.77,0,0,1,0-.49c0-.17.07-.33.11-.49s.09-.31.14-.45.1-.25.14-.35Zm2-2.58.6.64.61-.64.65.69-.65.7-.61-.66-.6.66-.66-.7Z"/><path class="cls-2" d="M101.13,14.44l-.52,1.61h-.12V14.57l-.12-5.19.93-.4Z"/><path class="cls-2" d="M123.42,17.12l-.66.69.65.7.66-.7Z"/><path class="cls-2" d="M145.23,9.8l-.62.63L144,9.8l-.65.68.65.7.6-.66.62.66.64-.7Z"/><path class="cls-2" d="M153.13,9.84l-.66.68.65.71.65-.71Z"/><path class="cls-2" d="M163.53,13.34a1.87,1.87,0,0,0-.29-.64,1.83,1.83,0,0,0-.5-.5A2.2,2.2,0,0,0,162,12a1.37,1.37,0,0,0-.66.18,1.74,1.74,0,0,0-.61.53,3.85,3.85,0,0,0-.52.93,7.54,7.54,0,0,0-.37,1.36H156a2.68,2.68,0,0,1-.47-.48c-.16-.18-.31-.38-.47-.58l-.46-.61a7.22,7.22,0,0,0-.49-.57,3.13,3.13,0,0,0-.53-.39,1.1,1.1,0,0,0-.58-.16,1.23,1.23,0,0,0-.74.27,1.73,1.73,0,0,0-.59.82.59.59,0,0,1,.13.19,1.64,1.64,0,0,1,.55-.39.77.77,0,0,1,.56,0,1.45,1.45,0,0,1,.39.2,2.55,2.55,0,0,1,.39.3c.11.12.24.24.35.37l.34.39c.11.12.2.25.3.36a2.63,2.63,0,0,0,.25.29h-9.73a7.27,7.27,0,0,0,0-1.4,6.37,6.37,0,0,0-.32-1.43l-.73.56a4.3,4.3,0,0,1,.18.58,4.68,4.68,0,0,1,.09.54,3.33,3.33,0,0,1,0,.55,4.54,4.54,0,0,1-.05.6H124.12a7.27,7.27,0,0,0,0-1.4,7,7,0,0,0-.32-1.43l-.73.56c.06.19.13.39.17.58a4.68,4.68,0,0,1,.1.54,5,5,0,0,1,0,.55c0,.18,0,.38,0,.6H105.89a.49.49,0,0,1-.39-.21,2,2,0,0,1-.29-.54c-.07-.23-.14-.47-.2-.76a7.53,7.53,0,0,1-.11-.83l-.66.89a5.27,5.27,0,0,0,.14.75,5,5,0,0,0,.24.62,2.9,2.9,0,0,0,.26.53c.09.16.19.3.28.43a2.5,2.5,0,0,1-.5.94,3,3,0,0,1-.82.68,4.55,4.55,0,0,1-1.07.47c-.38.12-.8.23-1.23.32l1.21.36a3.64,3.64,0,0,0,1.27-.35,3.39,3.39,0,0,0,1.53-1.53,4,4,0,0,0,.32-.89h54.39l.22-.69,2.69.8a3.15,3.15,0,0,0,.18-.41l.15-.47a3.85,3.85,0,0,0,.08-.49,4,4,0,0,0,0-.49A3.65,3.65,0,0,0,163.53,13.34Zm-.71,1.12c0,.16-.06.3-.09.44l-2-.57a2.49,2.49,0,0,1,.16-.53,2.71,2.71,0,0,1,.26-.48,2.85,2.85,0,0,1,.34-.35.78.78,0,0,1,.38-.16,1,1,0,0,1,.43.13.87.87,0,0,1,.3.27,1.07,1.07,0,0,1,.16.36,2,2,0,0,1,.07.43A3.44,3.44,0,0,1,162.82,14.46Z"/><path class="cls-2" d="M12.48,29.88l.17,0H13l.18,0v4.46h2a.81.81,0,0,1,0,.16.92.92,0,0,1,0,.16,2.85,2.85,0,0,1,0,.31H12.48Z"/><path class="cls-2" d="M20.62,32.58A.67.67,0,0,0,20.4,32a1,1,0,0,0-.61-.16,3.48,3.48,0,0,0-.47,0,3.25,3.25,0,0,0-.42.11,1.13,1.13,0,0,1-.13-.56,2.75,2.75,0,0,1,.53-.12,3.64,3.64,0,0,1,.56-.05,1.59,1.59,0,0,1,1.08.33,1.3,1.3,0,0,1,.36,1v2.27l-.6.12a4.2,4.2,0,0,1-.72.06,3.06,3.06,0,0,1-.63-.06,1.56,1.56,0,0,1-.47-.21.88.88,0,0,1-.3-.36,1.22,1.22,0,0,1-.11-.53,1.16,1.16,0,0,1,.12-.54,1.24,1.24,0,0,1,.34-.38,1.58,1.58,0,0,1,.49-.23,2.2,2.2,0,0,1,.58-.07h.37l.25,0Zm0,.69-.27,0-.28,0a1.16,1.16,0,0,0-.67.17.57.57,0,0,0-.23.49.66.66,0,0,0,.08.34.54.54,0,0,0,.19.18.79.79,0,0,0,.26.08H20a2,2,0,0,0,.34,0,1.44,1.44,0,0,0,.31,0Z"/><path class="cls-2" d="M25.12,29.78l.17,0h.35l.18,0v2a1,1,0,0,1,.4-.37,1.3,1.3,0,0,1,.65-.16,1.64,1.64,0,0,1,.6.11,1.18,1.18,0,0,1,.47.33,1.42,1.42,0,0,1,.31.57,2.48,2.48,0,0,1,.11.81,1.94,1.94,0,0,1-.53,1.46,2,2,0,0,1-1.52.53,3.63,3.63,0,0,1-.64-.06,4,4,0,0,1-.55-.14Zm.7,4.61.27.06h.3a1.29,1.29,0,0,0,.49-.08.82.82,0,0,0,.38-.25,1.11,1.11,0,0,0,.26-.42,1.63,1.63,0,0,0,.1-.61,1.69,1.69,0,0,0-.21-.92.74.74,0,0,0-.68-.32.89.89,0,0,0-.32.05.72.72,0,0,0-.29.17.79.79,0,0,0-.22.31,1.32,1.32,0,0,0-.08.47Z"/><path class="cls-2" d="M33.54,35.06a1.72,1.72,0,0,1-.74-.15,1.41,1.41,0,0,1-.53-.4,1.73,1.73,0,0,1-.32-.6,2.86,2.86,0,0,1,0-1.5,1.73,1.73,0,0,1,.32-.6,1.54,1.54,0,0,1,.53-.41,1.72,1.72,0,0,1,.74-.15,1.76,1.76,0,0,1,.75.15,1.54,1.54,0,0,1,.53.41,1.56,1.56,0,0,1,.31.6,2.61,2.61,0,0,1,0,1.5,1.56,1.56,0,0,1-.31.6,1.41,1.41,0,0,1-.53.4A1.76,1.76,0,0,1,33.54,35.06Zm0-.56a.83.83,0,0,0,.73-.35,1.86,1.86,0,0,0,.23-1,1.8,1.8,0,0,0-.23-1,.93.93,0,0,0-1.45,0,1.8,1.8,0,0,0-.23,1,1.86,1.86,0,0,0,.23,1A.82.82,0,0,0,33.54,34.5Z"/><path class="cls-2" d="M38.92,31.34l.15,0h.3l.15,0c0,.07,0,.16,0,.28s0,.21,0,.29a1.55,1.55,0,0,1,.39-.42,1.14,1.14,0,0,1,.63-.17h.22a.59.59,0,0,1,0,.14.66.66,0,0,1,0,.15,1,1,0,0,1,0,.17l0,.18H40.6a1,1,0,0,0-.36,0,.76.76,0,0,0-.32.19,1,1,0,0,0-.22.36,2,2,0,0,0-.08.61V35l-.17,0H39.1l-.18,0Z"/><path class="cls-2" d="M46.17,32.58A.69.69,0,0,0,46,32a1,1,0,0,0-.62-.16,3.33,3.33,0,0,0-.46,0,2.58,2.58,0,0,0-.42.11,1.13,1.13,0,0,1-.14-.56,2.75,2.75,0,0,1,.53-.12,3.75,3.75,0,0,1,.56-.05,1.59,1.59,0,0,1,1.08.33,1.27,1.27,0,0,1,.37,1v2.27l-.6.12a4.4,4.4,0,0,1-.73.06,2.9,2.9,0,0,1-.62-.06,1.51,1.51,0,0,1-.48-.21.88.88,0,0,1-.3-.36A1.22,1.22,0,0,1,44,33.9a1.05,1.05,0,0,1,.13-.54,1.1,1.1,0,0,1,.33-.38,1.69,1.69,0,0,1,.49-.23,2.25,2.25,0,0,1,.58-.07h.38l.24,0Zm0,.69-.27,0-.27,0a1.12,1.12,0,0,0-.67.17.55.55,0,0,0-.24.49.66.66,0,0,0,.08.34.57.57,0,0,0,.2.18.72.72,0,0,0,.26.08h.27a1.88,1.88,0,0,0,.33,0,1.34,1.34,0,0,0,.31,0Z"/><path class="cls-2" d="M50.81,31.9h-.55l0-.1,1.22-1.36h.06v.9h.92a1.12,1.12,0,0,1,0,.27c0,.05,0,.1,0,.15s0,.09,0,.14h-.92v1.66a3.11,3.11,0,0,0,0,.47.71.71,0,0,0,.09.27.26.26,0,0,0,.16.13.93.93,0,0,0,.26,0h.23l.19,0a1.36,1.36,0,0,1,.06.29c0,.1,0,.18,0,.26l-.3,0a1.77,1.77,0,0,1-.33,0,1.16,1.16,0,0,1-.8-.25,1,1,0,0,1-.29-.82Z"/><path class="cls-2" d="M57.45,35.06a1.72,1.72,0,0,1-.74-.15,1.41,1.41,0,0,1-.53-.4,1.73,1.73,0,0,1-.32-.6,2.86,2.86,0,0,1,0-1.5,1.73,1.73,0,0,1,.32-.6,1.54,1.54,0,0,1,.53-.41,1.72,1.72,0,0,1,.74-.15,1.76,1.76,0,0,1,.75.15,1.54,1.54,0,0,1,.53.41,1.56,1.56,0,0,1,.31.6,2.61,2.61,0,0,1,0,1.5,1.56,1.56,0,0,1-.31.6,1.41,1.41,0,0,1-.53.4A1.76,1.76,0,0,1,57.45,35.06Zm0-.56a.83.83,0,0,0,.73-.35,1.86,1.86,0,0,0,.23-1,1.8,1.8,0,0,0-.23-1,.93.93,0,0,0-1.45,0,1.8,1.8,0,0,0-.23,1,1.86,1.86,0,0,0,.23,1A.82.82,0,0,0,57.45,34.5Z"/><path class="cls-2" d="M62.83,31.34l.15,0h.3l.15,0c0,.07,0,.16,0,.28s0,.21,0,.29a1.55,1.55,0,0,1,.39-.42,1.14,1.14,0,0,1,.63-.17h.22a.59.59,0,0,1,0,.14.66.66,0,0,1,0,.15c0,.05,0,.11,0,.17l0,.18h-.21a1,1,0,0,0-.36,0,.76.76,0,0,0-.32.19,1,1,0,0,0-.22.36,2,2,0,0,0-.08.61V35l-.17,0H63l-.18,0Z"/><path class="cls-2" d="M68.44,31.89H68s0-.08,0-.13,0-.1,0-.14,0-.1,0-.15,0-.09,0-.13h1.15V35L69,35h-.34l-.18,0Zm-.15-1.35a1.11,1.11,0,0,1,0-.19V30a.9.9,0,0,1,0-.18l.2,0h.36l.2,0c0,.05,0,.11,0,.18a1.15,1.15,0,0,1,0,.18,1,1,0,0,1,0,.17c0,.07,0,.13,0,.19l-.19,0h-.37Z"/><path class="cls-2" d="M73.56,33.33a1.16,1.16,0,0,0,.31.87,1.18,1.18,0,0,0,.87.28,2.55,2.55,0,0,0,1-.18.88.88,0,0,1,.09.26,1.57,1.57,0,0,1,0,.3,2.1,2.1,0,0,1-.52.15,3.8,3.8,0,0,1-.62.05,2.4,2.4,0,0,1-.85-.14,1.49,1.49,0,0,1-.58-.39,1.58,1.58,0,0,1-.34-.59,2.9,2.9,0,0,1,0-1.51,1.67,1.67,0,0,1,.31-.61,1.58,1.58,0,0,1,.54-.41,1.64,1.64,0,0,1,.76-.16,1.69,1.69,0,0,1,.66.13,1.29,1.29,0,0,1,.47.35,1.62,1.62,0,0,1,.3.53,2.41,2.41,0,0,1,.09.67v.21c0,.08,0,.14,0,.19Zm1.8-.52a1.52,1.52,0,0,0,0-.38,1.07,1.07,0,0,0-.16-.32.75.75,0,0,0-.26-.21.76.76,0,0,0-.38-.09.81.81,0,0,0-.66.27,1.19,1.19,0,0,0-.28.73Z"/><path class="cls-2" d="M79.67,34.32a2.43,2.43,0,0,0,.43.12,2.3,2.3,0,0,0,.45.05,1.65,1.65,0,0,0,.32,0,.71.71,0,0,0,.25-.11.42.42,0,0,0,.18-.17.39.39,0,0,0,.07-.23.52.52,0,0,0-.05-.23.46.46,0,0,0-.15-.16,1,1,0,0,0-.2-.11l-.25-.09-.25-.09a1.82,1.82,0,0,1-.66-.38.79.79,0,0,1-.21-.58.94.94,0,0,1,.35-.76,1.54,1.54,0,0,1,1-.29,2.48,2.48,0,0,1,.54.06,2.35,2.35,0,0,1,.46.12,1.26,1.26,0,0,1,0,.28,1.69,1.69,0,0,1-.1.27,2.07,2.07,0,0,0-.37-.11,1.7,1.7,0,0,0-.46-.06,1,1,0,0,0-.46.1.32.32,0,0,0-.21.32.46.46,0,0,0,0,.21.62.62,0,0,0,.14.14.86.86,0,0,0,.19.11l.24.08.31.11a1.79,1.79,0,0,1,.32.13,1.05,1.05,0,0,1,.27.2.78.78,0,0,1,.17.28,1,1,0,0,1,.07.4,1.13,1.13,0,0,1-.11.48,1.07,1.07,0,0,1-.3.37,1.29,1.29,0,0,1-.47.23,2,2,0,0,1-.61.09A3.42,3.42,0,0,1,80,35a3.37,3.37,0,0,1-.48-.12,1.5,1.5,0,0,1,.06-.29Z"/><path class="cls-1" d="M25,21.1l-4.89-7.63-5,7.63h-2l6.3-9.48h1.31L27,21.1Z"/><path class="cls-1" d="M32.63,21.1V13h-5v-1.4H39.25V13H34.42V21.1Z"/><path class="cls-1" d="M43.14,21.1V11.62h1.79V19.7h7.69v1.4Z"/><path class="cls-1" d="M67.55,21.1l-4.88-7.63-5,7.63h-2L62,11.62h1.3l6.26,9.48Z"/><path class="cls-1" d="M72.68,21.1V19.7h8.24c.79,0,1.19-.29,1.19-.88V17.63c0-.59-.4-.88-1.19-.88H75.35A4.87,4.87,0,0,1,74,16.58a2.54,2.54,0,0,1-.93-.47,1.76,1.76,0,0,1-.52-.72,2.75,2.75,0,0,1-.16-.93v-.55a2.73,2.73,0,0,1,.16-.92,1.72,1.72,0,0,1,.52-.73,2.54,2.54,0,0,1,.93-.47,4.87,4.87,0,0,1,1.37-.17h8V13h-8c-.79,0-1.19.29-1.19.88v.58c0,.58.4.87,1.19.87h5.57a4.87,4.87,0,0,1,1.37.17,2.54,2.54,0,0,1,.93.47,1.72,1.72,0,0,1,.52.73,2.73,2.73,0,0,1,.16.92v1.17a2.75,2.75,0,0,1-.16.93,1.76,1.76,0,0,1-.52.72,2.54,2.54,0,0,1-.93.47,4.87,4.87,0,0,1-1.37.17Z"/></svg>